<svg xmlns="http://www.w3.org/2000/svg" viewBox="0 0 56 70" fill="none"><defs><linearGradient id="vl-metal" x1="4" y1="2" x2="52" y2="68" gradientUnits="userSpaceOnUse"><stop stop-color="#fff4b0"/><stop offset=".2" stop-color="#d7e4f3"/><stop offset=".42" stop-color="#152136"/><stop offset=".65" stop-color="#2a9ff0"/><stop offset=".82" stop-color="#f2d066"/><stop offset="1" stop-color="#8ea4c2"/></linearGradient><linearGradient id="vl-gem" x1="25" y1="2" x2="32" y2="8" gradientUnits="userSpaceOnUse"><stop stop-color="#e9fbff"/><stop offset=".4" stop-color="#39b9ff"/><stop offset="1" stop-color="#3151c9"/></linearGradient></defs><rect x="1.4" y="1.4" width="53.2" height="67.2" rx="6" stroke="url(#vl-metal)" stroke-width="3"/><rect x="2.2" y="2.2" width="51.6" height="65.6" rx="5.3" stroke="#111827" stroke-width="2"/><rect x="4" y="4" width="48" height="62" rx="3.8" stroke="#49bfff" stroke-width=".9"/><path d="M26.2 2.2h3.6l1.8 2.2-1.8 2.6h-3.6l-1.8-2.6 1.8-2.2Z" fill="url(#vl-gem)" stroke="#f4d774" stroke-width=".6"/><path d="M23 34h10v10H23z" fill="#45baff" opacity=".024"/><path d="M24 35v8m0-8 2.4 8m0-8v8m2-8v8m0-8h2c2.5 0 2.5 4 0 4h-2" stroke="#4ebdff" stroke-width=".7" stroke-linecap="round" stroke-linejoin="round" opacity=".075"/><path d="M41.1 68.4h7.6c3.1 0 5.6-2.5 5.6-5.6v-7.6l-3 2.6-4.2-2.2-4.1 2.2-2.9-2.5v12.1h1Z" fill="#111827" stroke="url(#vl-metal)" stroke-width="1.1"/><circle cx="47.1" cy="64" r="4.35" fill="#0c111d" stroke="#58c6ff" stroke-width=".75"/><path d="M43.9 61.7v4.6m0-4.6 1.25 4.6m0-4.6v4.6m1.05-4.6v4.6m0-4.6h1.1c1.6 0 1.6 2.3 0 2.3h-1.1M49.3 66.3v-4.6h.9c1.8 0 1.8 2.7 0 2.7h-.9" stroke="#f7d879" stroke-width=".48" stroke-linecap="round" stroke-linejoin="round"/></svg>
