<svg xmlns="http://www.w3.org/2000/svg" viewBox="0 0 56 70" fill="none"><defs><linearGradient id="vi-r" x1="4" y1="2" x2="52" y2="68" gradientUnits="userSpaceOnUse"><stop stop-color="#2d2247"/><stop offset=".44" stop-color="#6f2bc2"/><stop offset=".78" stop-color="#211a37"/><stop offset="1" stop-color="#8c44e7"/></linearGradient><linearGradient id="vi-s" x1="8" y1="3" x2="49" y2="68" gradientUnits="userSpaceOnUse"><stop stop-color="#fff"/><stop offset=".28" stop-color="#b9b5c5"/><stop offset=".62" stop-color="#656071"/><stop offset="1" stop-color="#e9e6ef"/></linearGradient><linearGradient id="vi-a" x1="43" y1="59" x2="52" y2="68" gradientUnits="userSpaceOnUse"><stop stop-color="#e8c8ff"/><stop offset=".45" stop-color="#a334f0"/><stop offset="1" stop-color="#52109c"/></linearGradient></defs><rect x="1.5" y="1.5" width="53" height="67" rx="6" stroke="#4a4654" stroke-width="3"/><rect x="1.5" y="1.5" width="53" height="67" rx="6" stroke="url(#vi-r)" stroke-width="2.1"/><rect x="4" y="4" width="48" height="62" rx="3.8" stroke="url(#vi-s)" stroke-width=".9"/><path d="M7 4h12M4 8v11M37 4h12M52 8v11" stroke="#9b56ed" stroke-width=".55" stroke-linecap="round"/><path d="M28 27c1.2 5.2 3.8 7.8 9 9-5.2 1.2-7.8 3.8-9 9-1.2-5.2-3.8-7.8-9-9 5.2-1.2 7.8-3.8 9-9Z" fill="#6f2bc2" opacity=".055"/><path d="M41.5 68.5h7c3.3 0 6-2.7 6-6v-7l-3 2.8-4.1-2.4-4.1 2.4-2.8-2.6v11.8l1 1Z" fill="url(#vi-r)" stroke="url(#vi-s)" stroke-width="1.1"/><path d="M47.4 59.2c.9 2.4 2.3 3.8 4.7 4.7-2.4.9-3.8 2.3-4.7 4.7-.9-2.4-2.3-3.8-4.7-4.7 2.4-.9 3.8-2.3 4.7-4.7Z" fill="url(#vi-a)" stroke="#f4eaff" stroke-width=".55"/></svg>
