<svg xmlns="http://www.w3.org/2000/svg" viewBox="0 0 56 70" fill="none"><defs><linearGradient id="be-r" x1="4" y1="2" x2="52" y2="68" gradientUnits="userSpaceOnUse"><stop stop-color="#cb1733"/><stop offset=".48" stop-color="#7f0c22"/><stop offset="1" stop-color="#b20e2c"/></linearGradient><linearGradient id="be-g" x1="8" y1="3" x2="49" y2="68" gradientUnits="userSpaceOnUse"><stop stop-color="#fff0aa"/><stop offset=".34" stop-color="#e4a52f"/><stop offset=".7" stop-color="#95520b"/><stop offset="1" stop-color="#f5c95e"/></linearGradient><linearGradient id="be-a" x1="44" y1="59" x2="51" y2="68" gradientUnits="userSpaceOnUse"><stop stop-color="#c7ffe8"/><stop offset=".45" stop-color="#22b77a"/><stop offset="1" stop-color="#07543c"/></linearGradient></defs><rect x="1.5" y="1.5" width="53" height="67" rx="6" stroke="url(#be-g)" stroke-width="3"/><rect x="1.8" y="1.8" width="52.4" height="66.4" rx="5.7" stroke="url(#be-r)" stroke-width="2"/><rect x="4" y="4" width="48" height="62" rx="3.8" stroke="#fff1d2" stroke-width=".9"/><path d="M5 13 9 8l2-5 2 5 5-4M51 13l-4-5-2-5-2 5-5-4" stroke="url(#be-g)" stroke-width=".65"/><path d="M28 27c1.4 4 3.7 6.3 7.7 7.7-4 1.4-6.3 3.7-7.7 7.7-1.4-4-3.7-6.3-7.7-7.7 4-1.4 6.3-3.7 7.7-7.7Z" fill="#b51431" opacity=".055"/><path d="M41.2 68.5h7.3c3.3 0 6-2.7 6-6v-7.3l-3 3.1-4.1-2.4-4.1 2.4-3-2.9v12l.9 1.1Z" fill="url(#be-r)" stroke="url(#be-g)" stroke-width="1.1"/><path d="m47.4 59 3.7 4.8-3.7 4.8-3.7-4.8 3.7-4.8Z" fill="url(#be-a)" stroke="#efffce" stroke-width=".6"/><path d="m47.4 60.4-1.3 3.4 1.3 3.4 1.3-3.4-1.3-3.4Z" fill="#a2ffd6"/></svg>
