<svg xmlns="http://www.w3.org/2000/svg" viewBox="0 0 56 70" fill="none"><defs><linearGradient id="c7-gold" x1="4" y1="2" x2="52" y2="68" gradientUnits="userSpaceOnUse"><stop stop-color="#fff3a8"/><stop offset=".25" stop-color="#dca931"/><stop offset=".55" stop-color="#8b5612"/><stop offset=".8" stop-color="#f5d66b"/><stop offset="1" stop-color="#b77618"/></linearGradient><linearGradient id="c7-ribbon" x1="4" y1="20" x2="52" y2="52" gradientUnits="userSpaceOnUse"><stop stop-color="#f8fafc"/><stop offset=".28" stop-color="#172f63"/><stop offset=".52" stop-color="#f8fafc"/><stop offset=".73" stop-color="#a91329"/><stop offset="1" stop-color="#0b713c"/></linearGradient></defs><rect x="1.5" y="1.5" width="53" height="67" rx="6" stroke="url(#c7-gold)" stroke-width="3"/><rect x="2.2" y="2.2" width="51.6" height="65.6" rx="5.4" stroke="#f7f7f3" stroke-width="2"/><rect x="4" y="4" width="48" height="62" rx="3.8" stroke="url(#c7-ribbon)" stroke-width="1.1"/><path d="M27 2.6h2l-.4 2.2h-1.2L27 2.6Zm3 0h2l-.4 2.2h-1.2L30 2.6Zm3 0h2l-.4 2.2h-1.2L33 2.6Zm3 0h2l-.4 2.2h-1.2L36 2.6Z" fill="#f7d461"/><path d="M25 34h8l-4.5 10h-2l4-8h-5.5v-2Z" fill="#bf8722" opacity=".075"/><path d="M41.2 68.3h7.5c3.1 0 5.6-2.5 5.6-5.6v-7.5l-3 2.6-4.2-2.3-4.1 2.3-2.8-2.5v12h1Z" fill="#111a2d" stroke="url(#c7-gold)" stroke-width="1.1"/><path d="M42.2 59.5 46 57v11h-3.8l2.4-4.2-2.4-4.3Z" fill="#f7f7f3"/><path d="M52 59.5 48.2 57v11H52l-2.4-4.2 2.4-4.3Z" fill="#a9142c"/><path d="M50.1 58.2 52 59.5l-2.4 4.3 2.4 4.2h-1.9V58.2Z" fill="#0b713c" opacity=".92"/><circle cx="47.1" cy="64" r="4.3" fill="#141820" stroke="url(#c7-gold)" stroke-width=".82"/><path d="M44.8 61.6h4.8l-2.8 5h-1.3l2.5-4h-3.2v-1Z" fill="#f4d06a" stroke="#fff3a8" stroke-width=".25"/></svg>
