<svg xmlns="http://www.w3.org/2000/svg" viewBox="0 0 56 70" fill="none"><defs><linearGradient id="pa-gold" x1="5" y1="2" x2="52" y2="68" gradientUnits="userSpaceOnUse"><stop stop-color="#fff7bd"/><stop offset=".24" stop-color="#e1b548"/><stop offset=".5" stop-color="#8d5b16"/><stop offset=".75" stop-color="#f6dc76"/><stop offset="1" stop-color="#bc7e20"/></linearGradient><linearGradient id="pa-silver" x1="8" y1="4" x2="48" y2="66" gradientUnits="userSpaceOnUse"><stop stop-color="#fff"/><stop offset=".42" stop-color="#c9d2df"/><stop offset=".7" stop-color="#f8fbff"/><stop offset="1" stop-color="#8d9bac"/></linearGradient></defs><rect x="1.5" y="1.5" width="53" height="67" rx="6" stroke="url(#pa-gold)" stroke-width="3"/><rect x="2.25" y="2.25" width="51.5" height="65.5" rx="5.35" stroke="url(#pa-silver)" stroke-width="2"/><rect x="4" y="4" width="48" height="62" rx="3.8" stroke="#194f9f" stroke-width="1.1"/><path d="M26.2 2.5h3.6l1.6 2.2-1.6 2.1h-3.6l-1.6-2.1 1.6-2.2Z" fill="#287bd4" stroke="#f6d66b" stroke-width=".6"/><path d="M23.5 35h9v9h-9z" fill="#f5d76d" opacity=".025"/><path d="M28 35.2v8.6m-4.3-4.3h8.6M25 36.5l6 6m0-6-6 6" stroke="#dfb849" stroke-width=".7" stroke-linecap="round" opacity=".085"/><path d="M41.1 68.4h7.6c3.1 0 5.6-2.5 5.6-5.6v-7.6l-3 2.6-4.2-2.2-4.1 2.2-2.9-2.5v12.1h1Z" fill="#174887" stroke="url(#pa-gold)" stroke-width="1.1"/><path d="M43.1 61.2h8v1.4h-8z" fill="url(#pa-silver)" stroke="#d6aa3d" stroke-width=".35"/><path d="M46.4 59.6h1.4v7.3h-1.4z" fill="url(#pa-gold)"/><path d="M47.1 61.7 50 63.2v2.3l-2.9 1.8-2.9-1.8v-2.3l2.9-1.5Z" fill="#f8e58e" stroke="#fff9d1" stroke-width=".35"/><circle cx="47.1" cy="64.3" r="1" fill="#2b82da"/></svg>
