<svg xmlns="http://www.w3.org/2000/svg" viewBox="0 0 56 70" fill="none"><defs><linearGradient id="iw-steel" x1="5" y1="2" x2="52" y2="68" gradientUnits="userSpaceOnUse"><stop stop-color="#e9fbff"/><stop offset=".28" stop-color="#74b8e4"/><stop offset=".56" stop-color="#173852"/><stop offset=".8" stop-color="#9de6ff"/><stop offset="1" stop-color="#263b4b"/></linearGradient><linearGradient id="iw-fire" x1="44" y1="60" x2="50" y2="68" gradientUnits="userSpaceOnUse"><stop stop-color="#fff1a0"/><stop offset=".45" stop-color="#ff9b27"/><stop offset="1" stop-color="#d43a12"/></linearGradient></defs><rect x="1.5" y="1.5" width="53" height="67" rx="6" stroke="url(#iw-steel)" stroke-width="3"/><rect x="2.3" y="2.3" width="51.4" height="65.4" rx="5.3" stroke="#142b3e" stroke-width="2"/><rect x="4.1" y="4.1" width="47.8" height="61.8" rx="3.7" stroke="#d8f6ff" stroke-width=".85"/><path d="M26 2.8h4l-.8 3.8-1.2-1.2-1.1 2.4-.9-5ZM34 3h2.6l-.7 3.2-.8-1-1.1 2.2V3Z" fill="#dff8ff" stroke="#78bfe9" stroke-width=".35"/><path d="M4 52v10c0 2.2 1.8 4 4 4h9M52 52v10c0 2.2-1.8 4-4 4h-9" stroke="#5da7d6" stroke-width="1.15"/><path d="M23.5 35.2h9v9h-9z" fill="#69c9ff" opacity=".025"/><path d="M28 35v9m-3.8-6.8 7.6 4.6m-7.6 0 7.6-4.6M28 35l-1.1 2.1m1.1-2.1 1.1 2.1M28 44l-1.1-2.1m1.1 2.1 1.1-2.1" stroke="#55b9f1" stroke-width=".7" stroke-linecap="round" opacity=".085"/><path d="M41.2 68.2h7.4c3.2 0 5.7-2.5 5.7-5.7v-7.3l-3 2.6-4.2-2.2-4 2.2-2.9-2.5v11.9h1Z" fill="#162e43" stroke="url(#iw-steel)" stroke-width="1.1"/><circle cx="47.2" cy="63.9" r="4.2" fill="#173b56" stroke="#bcefff" stroke-width=".75"/><path d="M45.6 61.3v5.1m-2-3.8 4 2.4m-4 0 4-2.4m-2-1.3-.6 1m.6-1.1.6 1.1m-.6 4.1-.6-1m.6 1 .6-1" stroke="#d9f8ff" stroke-width=".58" stroke-linecap="round"/><path d="M49.2 66.2c-1.4-.8-1.5-2-.3-3.2.1.8.5.9.8 1.2.8-.9.8-1.8.5-2.8 1.8 1.8 1.5 4-.3 4.8-.3.1-.5.1-.7 0Z" fill="url(#iw-fire)"/></svg>
