<svg xmlns="http://www.w3.org/2000/svg" viewBox="0 0 56 70" fill="none"><defs><linearGradient id="sw-b" x1="4" y1="2" x2="52" y2="68" gradientUnits="userSpaceOnUse"><stop stop-color="#0758d7"/><stop offset=".5" stop-color="#173f9b"/><stop offset="1" stop-color="#062f7f"/></linearGradient><linearGradient id="sw-g" x1="8" y1="3" x2="49" y2="68" gradientUnits="userSpaceOnUse"><stop stop-color="#fff0a8"/><stop offset=".35" stop-color="#dda22f"/><stop offset=".72" stop-color="#84500c"/><stop offset="1" stop-color="#f3ca58"/></linearGradient><linearGradient id="sw-s" x1="2" y1="2" x2="53" y2="69" gradientUnits="userSpaceOnUse"><stop stop-color="#f7f4eb"/><stop offset=".45" stop-color="#9a9690"/><stop offset="1" stop-color="#ded9cd"/></linearGradient></defs><rect x="1.5" y="1.5" width="53" height="67" rx="6" stroke="url(#sw-s)" stroke-width="3"/><rect x="1.8" y="1.8" width="52.4" height="66.4" rx="5.7" stroke="url(#sw-b)" stroke-width="2"/><rect x="4" y="4" width="48" height="62" rx="3.8" stroke="url(#sw-g)" stroke-width=".9"/><path d="M5 8V4h4v2h4V4h5M38 4h5v2h4V4h4v4" stroke="#d8d4c9" stroke-width=".65"/><path d="M28 28 36 31v7c0 5-3.3 8.5-8 11-4.7-2.5-8-6-8-11v-7l8-3Z" fill="#144aa8" opacity=".05"/><path d="M41.5 68.5h7c3.3 0 6-2.7 6-6v-7l-3 2.8-4.1-2.4-4.1 2.4-2.8-2.6v11.8l1 1Z" fill="url(#sw-b)" stroke="url(#sw-s)" stroke-width="1.1"/><path d="m47.5 59.3 4 1.5v3.6c0 1.5-1.4 2.7-4 4-2.6-1.3-4-2.5-4-4v-3.6l4-1.5Z" fill="#0a4bc5" stroke="url(#sw-g)" stroke-width=".65"/><path d="M45.4 64.2h4.2M47.5 61.3v5.2" stroke="#ffe18a" stroke-width=".6"/></svg>
