<svg xmlns="http://www.w3.org/2000/svg" viewBox="0 0 56 70" fill="none"><defs><pattern id="id-p" width="6" height="6" patternUnits="userSpaceOnUse" patternTransform="rotate(45)"><rect width="6" height="6" fill="#b3132c"/><path d="M1 0v6M4 0v6" stroke="#f14758" stroke-width=".65"/><path d="M2.5 0v6" stroke="#141116" stroke-width="1.25"/><path d="M0 3h6" stroke="#fff4ee" stroke-width=".28"/></pattern><linearGradient id="id-g" x1="6" y1="3" x2="50" y2="68" gradientUnits="userSpaceOnUse"><stop stop-color="#fff2bd"/><stop offset=".35" stop-color="#e9ae39"/><stop offset=".72" stop-color="#9a5b12"/><stop offset="1" stop-color="#ffd46a"/></linearGradient></defs><rect x="1.5" y="1.5" width="53" height="67" rx="6" stroke="url(#id-g)" stroke-width="3"/><rect x="1.8" y="1.8" width="52.4" height="66.4" rx="5.7" stroke="url(#id-p)" stroke-width="2"/><rect x="4" y="4" width="48" height="62" rx="3.8" stroke="#fff8ef" stroke-width="1.15"/><path d="M7 4h12M37 4h12M4 8v11M52 8v11" stroke="#f5c85e" stroke-width=".65"/><circle cx="28" cy="4" r=".8" fill="#fff4c8"/><circle cx="32" cy="4" r=".8" fill="#fff4c8"/><circle cx="36" cy="4" r=".8" fill="#fff4c8"/><path d="M22.5 32.5h13v11H22.5z" fill="#e98ab2" opacity=".032"/><path d="M23.8 42.6 25.7 34l1.9 8.6m-3.1-3h2.4M28.4 34v8.6m0-4.2 2.8-4.4m-2.8 4.4 3 4.2M32.2 34v8.6m0-8.6h1.3c2 0 2 4.2 0 4.2h-1.3m0 0h1.5c2.2 0 2.2 4.4 0 4.4h-1.5" stroke="#e98ab2" stroke-width=".78" stroke-linecap="round" stroke-linejoin="round" opacity=".075"/><path d="M41.5 68.5h7c3.3 0 6-2.7 6-6v-7l-3 2.8-4.1-2.4-4.1 2.4-2.8-2.6v11.8l1 1Z" fill="url(#id-p)" stroke="url(#id-g)" stroke-width="1.1"/><path d="m43.2 60.3 7.8 6.6M51 60.3l-7.8 6.6" stroke="#171217" stroke-width="1.15" stroke-linecap="round"/><circle cx="43.1" cy="60.3" r="1.05" fill="#e6b64d"/><circle cx="51.1" cy="60.3" r="1.05" fill="#e6b64d"/><circle cx="47.1" cy="64" r="4.25" fill="#e98ab2" stroke="url(#id-g)" stroke-width=".8"/><path d="M43.9 66.05 44.9 61.95l1 4.1m-1.65-1.45h1.3m.9-2.65v4.1m0-2 1.4-2.1m-1.4 2.1 1.5 2m.55-4.1v4.1m0-4.1h.7c1.35 0 1.35 2.05 0 2.05h-.7m0 0h.78c1.45 0 1.45 2.05 0 2.05h-.78" stroke="#fff" stroke-width=".43" stroke-linecap="round" stroke-linejoin="round"/></svg>
