<svg xmlns="http://www.w3.org/2000/svg" viewBox="0 0 56 70" fill="none"><defs><linearGradient id="he-i" x1="4" y1="2" x2="52" y2="68" gradientUnits="userSpaceOnUse"><stop stop-color="#504843"/><stop offset=".35" stop-color="#171211"/><stop offset=".7" stop-color="#382b27"/><stop offset="1" stop-color="#0d0a09"/></linearGradient><linearGradient id="he-l" x1="8" y1="3" x2="49" y2="68" gradientUnits="userSpaceOnUse"><stop stop-color="#ff9a20"/><stop offset=".22" stop-color="#d4230d"/><stop offset=".67" stop-color="#600b08"/><stop offset="1" stop-color="#ff5b0a"/></linearGradient></defs><rect x="1.5" y="1.5" width="53" height="67" rx="5" stroke="url(#he-i)" stroke-width="3"/><rect x="1.8" y="1.8" width="52.4" height="66.4" rx="4.7" stroke="#5e0d09" stroke-width="2"/><rect x="4" y="4" width="48" height="62" rx="3.2" stroke="url(#he-i)" stroke-width="1"/><path d="m4 13 3-3-1-4 5 3 4-5M52 13l-3-3 1-4-5 3-4-5M4 56l3 3-1 5 5-3 4 5" stroke="url(#he-l)" stroke-width=".75"/><path d="M28 27 35 35l-7 12-7-12 7-8Z" fill="#9b160c" opacity=".055"/><path d="M41 68.5h7.5c3.3 0 6-2.7 6-6V55l-3 3.2-4.1-2.4-4.1 2.4-3.1-3v12.2l.8 1.1Z" fill="url(#he-i)" stroke="#6f120c" stroke-width="1.2"/><path d="m47.4 58.8 4 5-4 4.8-4-4.8 4-5Z" fill="url(#he-l)" stroke="#d8b09a" stroke-width=".55"/><path d="m47.4 60.3-1 3.3 1 3.2 1.2-3.2-1.2-3.3Z" fill="#ffb12a"/></svg>
