<svg xmlns="http://www.w3.org/2000/svg" viewBox="0 0 56 70" fill="none"><defs><linearGradient id="ch-r" x1="5" y1="2" x2="51" y2="68" gradientUnits="userSpaceOnUse"><stop stop-color="#2b2420"/><stop offset=".42" stop-color="#7e160f"/><stop offset=".72" stop-color="#211b1a"/><stop offset="1" stop-color="#a52416"/></linearGradient><linearGradient id="ch-g" x1="9" y1="3" x2="48" y2="68" gradientUnits="userSpaceOnUse"><stop stop-color="#fff2a8"/><stop offset=".28" stop-color="#e4ad37"/><stop offset=".62" stop-color="#8e500d"/><stop offset="1" stop-color="#f6ca55"/></linearGradient></defs><rect x="1.5" y="1.5" width="53" height="67" rx="6" stroke="#5b3310" stroke-width="3"/><rect x="1.5" y="1.5" width="53" height="67" rx="6" stroke="url(#ch-r)" stroke-width="2.1"/><rect x="4" y="4" width="48" height="62" rx="3.8" stroke="url(#ch-g)" stroke-width=".9"/><path d="M7 4h11M4 8v10M38 4h11M52 8v10" stroke="#b93220" stroke-width=".65" stroke-linecap="round"/><g opacity=".055" stroke="#7e160f" stroke-linecap="round" stroke-linejoin="round"><path d="m19 37 3-7 6 5 6-5 3 7-3 6H22l-3-6Z" fill="#7e160f"/><path d="M18 46c2.5 4 5.5 6 10 7 4.5-1 7.5-3 10-7M18 44c-3-2-4.5-5-4.5-8M38 44c3-2 4.5-5 4.5-8" stroke-width="1.6"/></g><path d="M41.5 68.5h6.9c3.4 0 6.1-2.7 6.1-6.1v-6.9l-3 2.7-4.1-2.4-4.1 2.4-2.9-2.6v11.8l1.1 1.1Z" fill="url(#ch-r)" stroke="url(#ch-g)" stroke-width="1.1"/><path d="M43.2 63.2h8.4l-.8 3.1h-6.7l-.9-3.1Zm.5-.5 1-3 2.7 2.1 2.7-2.1 1 3" fill="#8f1c12" stroke="#ffe18b" stroke-width=".58"/><circle cx="47.4" cy="64.8" r=".7" fill="#ffd66a"/></svg>
