<svg xmlns="http://www.w3.org/2000/svg" viewBox="0 0 56 70" fill="none"><defs><linearGradient id="em-r" x1="4" y1="2" x2="52" y2="68" gradientUnits="userSpaceOnUse"><stop stop-color="#0b5c45"/><stop offset=".46" stop-color="#138064"/><stop offset="1" stop-color="#073f34"/></linearGradient><linearGradient id="em-g" x1="12" y1="4" x2="46" y2="68" gradientUnits="userSpaceOnUse"><stop stop-color="#fff0a8"/><stop offset=".3" stop-color="#dca53b"/><stop offset=".72" stop-color="#8d5917"/><stop offset="1" stop-color="#f0c65f"/></linearGradient></defs><rect x="1.5" y="1.5" width="53" height="67" rx="6" stroke="#7b5419" stroke-width="3"/><rect x="1.5" y="1.5" width="53" height="67" rx="6" stroke="url(#em-r)" stroke-width="2.1"/><rect x="4" y="4" width="48" height="62" rx="3.8" stroke="url(#em-g)" stroke-width=".9"/><path d="M8 3.8h12M4 9v12M36 3.8h12M52 9v12" stroke="#f0c65f" stroke-width=".55" stroke-linecap="round" opacity=".85"/><g opacity=".055" fill="#0c6a52"><circle cx="28" cy="31" r="6"/><circle cx="22.5" cy="36.2" r="6"/><circle cx="33.5" cy="36.2" r="6"/><path d="M26 36h4c-.2 7.2 1.8 10 4.5 12H21.5c2.7-2 4.7-4.8 4.5-12Z"/></g><path d="M42.2 68.5h6.2c3.4 0 6.1-2.7 6.1-6.1v-6.2l-3.2 2.6-3.9-2.2-3.9 2.2-2.6-2.1v8.6l1.3 1.2Z" fill="url(#em-r)" stroke="url(#em-g)" stroke-width="1.1" stroke-linejoin="round"/><path d="m47.4 59.6 4 1.3v3.2c0 1.7-1.5 2.8-4 4.2-2.5-1.4-4-2.5-4-4.2v-3.2l4-1.3Z" fill="#0a513f" stroke="#ffe18b" stroke-width=".65"/><path d="M45.5 63.3h3.8" stroke="#dca53b" stroke-width=".65" stroke-linecap="round"/></svg>
